<?xml version="1.0" standalone="no"?>
<!DOCTYPE svg PUBLIC "-//W3C//DTD SVG 20010904//EN"
 "http://www.w3.org/TR/2001/REC-SVG-20010904/DTD/svg10.dtd">
<svg version="1.0" xmlns="http://www.w3.org/2000/svg"
 width="340.000000pt" height="431.000000pt" viewBox="0 0 340.000000 431.000000"
 preserveAspectRatio="xMidYMid meet">

<g transform="translate(0.000000,431.000000) scale(0.100000,-0.100000)"
fill="#000000" stroke="none">
<path d="M1038 3693 l-57 -56 -83 21 c-46 12 -86 22 -90 22 -5 0 -8 -42 -8
-93 l0 -93 96 -24 c53 -13 92 -26 86 -28 -6 -2 -45 6 -87 17 -41 12 -80 21
-85 21 -6 0 -10 -38 -10 -93 l0 -93 96 -24 c53 -13 92 -26 86 -28 -6 -2 -45 6
-87 17 -41 12 -80 21 -85 21 -6 0 -10 -38 -10 -93 l0 -93 96 -24 c53 -13 92
-26 86 -28 -6 -2 -45 6 -87 17 -41 12 -80 21 -85 21 -6 0 -10 -38 -10 -93 l0
-93 96 -24 c53 -13 92 -26 86 -28 -6 -2 -45 6 -87 17 -41 12 -80 21 -85 21 -6
0 -10 -38 -10 -93 l0 -93 96 -24 c53 -13 92 -26 86 -28 -6 -2 -45 6 -87 17
-41 12 -80 21 -85 21 -6 0 -10 -38 -10 -93 l0 -93 96 -24 c53 -13 92 -26 86
-28 -6 -2 -45 6 -87 17 -41 12 -80 21 -85 21 -6 0 -10 -38 -10 -93 l0 -93 96
-24 c53 -13 92 -26 86 -28 -6 -2 -45 6 -87 17 -41 12 -80 21 -85 21 -6 0 -10
-38 -10 -93 l0 -93 96 -24 c53 -13 92 -26 86 -28 -6 -2 -45 6 -87 17 -41 12
-80 21 -85 21 -6 0 -10 -38 -10 -93 l0 -93 96 -24 c53 -13 92 -26 86 -28 -6
-2 -45 6 -87 17 -41 12 -80 21 -85 21 -6 0 -10 -38 -10 -93 l0 -93 96 -24 c53
-13 92 -26 86 -28 -6 -2 -45 6 -87 17 -41 12 -80 21 -85 21 -6 0 -10 -37 -10
-89 0 -50 -4 -92 -9 -96 -8 -4 -121 21 -180 41 -10 3 1 21 37 57 l52 53 0 302
c0 166 -4 302 -9 302 -4 0 -31 -24 -58 -53 l-51 -53 -88 23 c-48 13 -90 25
-92 27 -2 2 19 25 47 51 28 26 51 53 51 59 0 6 -27 -16 -59 -48 l-60 -59 -88
23 c-48 13 -90 25 -92 27 -3 2 20 29 50 61 l54 57 -60 -57 -60 -57 -70 18
c-38 10 -80 21 -92 25 -23 7 -23 6 -23 -88 l0 -95 43 -11 c93 -25 148 -42 145
-45 -4 -4 -115 23 -165 39 -23 7 -23 6 -23 -88 l0 -95 42 -11 c94 -25 149 -42
146 -45 -4 -4 -115 23 -165 39 -23 7 -23 6 -23 -88 l0 -95 42 -11 c94 -25 149
-42 146 -45 -4 -4 -115 23 -165 39 -23 7 -23 6 -23 -88 l0 -95 42 -11 c94 -25
149 -42 146 -45 -4 -4 -115 23 -165 39 -23 7 -23 6 -23 -88 l0 -95 43 -11 c93
-25 148 -42 145 -45 -4 -4 -115 23 -165 39 -23 7 -23 6 -23 -87 l0 -94 178
-48 c97 -27 218 -59 267 -72 50 -13 198 -52 330 -88 132 -36 325 -87 429 -115
l190 -51 53 53 53 52 0 1400 0 1400 -59 -58 -58 -58 -79 21 c-44 12 -85 24
-93 27 -10 3 1 21 39 59 30 30 49 55 44 55 -6 0 -34 -24 -62 -54 l-51 -54 -48
13 c-26 8 -68 19 -92 25 l-44 12 54 54 c29 29 51 56 48 58 -3 3 -30 -20 -61
-51z m51 -274 c96 -26 105 -29 100 -33 -5 -5 -179 41 -187 49 -9 9 9 6 87 -16z
m220 -59 c45 -12 80 -24 77 -27 -6 -7 -169 38 -181 50 -7 7 -5 8 6 4 9 -3 53
-15 98 -27z m-220 -141 c96 -26 105 -29 100 -33 -5 -5 -179 41 -187 49 -9 9 9
6 87 -16z m220 -59 c45 -12 80 -24 77 -27 -6 -7 -169 38 -181 50 -7 7 -5 8 6
4 9 -3 53 -15 98 -27z m-220 -141 c96 -26 105 -29 100 -33 -5 -5 -179 41 -187
49 -9 9 9 6 87 -16z m220 -59 c45 -12 80 -24 77 -27 -6 -7 -169 38 -181 50 -7
7 -5 8 6 4 9 -3 53 -15 98 -27z m-220 -141 c96 -26 105 -29 100 -33 -5 -5
-179 41 -187 49 -9 9 9 6 87 -16z m220 -59 c45 -12 80 -24 77 -27 -6 -7 -169
38 -181 50 -7 7 -5 8 6 4 9 -3 53 -15 98 -27z m-220 -141 c96 -26 105 -29 100
-33 -5 -5 -179 41 -187 49 -9 9 9 6 87 -16z m220 -59 c45 -12 80 -24 77 -27
-6 -7 -169 38 -181 50 -7 7 -5 8 6 4 9 -3 53 -15 98 -27z m-220 -141 c96 -26
105 -29 100 -33 -5 -5 -179 41 -187 49 -9 9 9 6 87 -16z m220 -59 c45 -12 80
-24 77 -27 -6 -7 -169 38 -181 50 -7 7 -5 8 6 4 9 -3 53 -15 98 -27z m-220
-141 c96 -26 105 -29 100 -33 -5 -5 -179 41 -187 49 -9 9 9 6 87 -16z m220
-59 c45 -12 80 -24 77 -27 -6 -7 -169 38 -181 50 -7 7 -5 8 6 4 9 -3 53 -15
98 -27z m-925 -150 c5 0 7 -3 3 -6 -8 -8 -187 38 -187 47 0 4 39 -4 87 -17 49
-13 92 -24 97 -24z m705 9 c96 -26 105 -29 100 -33 -5 -5 -179 41 -187 49 -9
9 9 6 87 -16z m-595 -40 c45 -12 85 -25 90 -30 5 -5 -33 3 -84 17 -86 22 -117
34 -95 34 5 0 45 -10 89 -21z m815 -19 c45 -12 80 -24 77 -27 -6 -7 -169 38
-181 50 -7 7 -5 8 6 4 9 -3 53 -15 98 -27z m-925 -150 c5 0 7 -3 3 -6 -8 -8
-187 38 -187 47 0 4 39 -4 87 -17 49 -13 92 -24 97 -24z m705 9 c96 -26 105
-29 100 -33 -5 -5 -179 41 -187 49 -9 9 9 6 87 -16z m-595 -40 c45 -12 85 -25
90 -30 5 -5 -33 3 -84 17 -86 22 -117 34 -95 34 5 0 45 -10 89 -21z m815 -19
c45 -12 80 -24 77 -27 -6 -7 -169 38 -181 50 -7 7 -5 8 6 4 9 -3 53 -15 98
-27z m-925 -150 c5 0 7 -3 3 -6 -8 -8 -187 38 -187 47 0 4 39 -4 87 -17 49
-13 92 -24 97 -24z m705 9 c96 -26 105 -29 100 -33 -5 -5 -179 41 -187 49 -9
9 9 6 87 -16z m-595 -40 c45 -12 85 -25 90 -30 5 -5 -33 3 -84 17 -86 22 -117
34 -95 34 5 0 45 -10 89 -21z m815 -19 c45 -12 80 -24 77 -27 -6 -7 -169 38
-181 50 -7 7 -5 8 6 4 9 -3 53 -15 98 -27z m-394 -95 c44 -13 71 -23 60 -23
-11 0 -56 10 -100 23 -44 13 -71 23 -60 23 11 0 56 -10 100 -23z m-531 -55 c5
0 7 -3 3 -6 -8 -8 -187 38 -187 47 0 4 39 -4 87 -17 49 -13 92 -24 97 -24z
m705 9 c96 -26 105 -29 100 -33 -5 -5 -179 41 -187 49 -9 9 9 6 87 -16z m-595
-40 c45 -12 85 -25 90 -30 5 -5 -33 3 -84 17 -86 22 -117 34 -95 34 5 0 45
-10 89 -21z m815 -19 c45 -12 80 -24 77 -27 -6 -7 -169 38 -181 50 -7 7 -5 8
6 4 9 -3 53 -15 98 -27z m-600 -39 c41 -11 77 -24 80 -27 3 -4 -5 -4 -19 0
-14 3 -54 14 -90 22 -36 9 -69 21 -75 27 -7 6 -3 7 10 4 11 -4 53 -15 94 -26z
m206 -56 c44 -13 71 -23 60 -23 -11 0 -56 10 -100 23 -44 13 -71 23 -60 23 11
0 56 -10 100 -23z m-531 -55 c5 0 7 -3 3 -6 -8 -8 -187 38 -187 47 0 4 39 -4
87 -17 49 -13 92 -24 97 -24z m705 9 c96 -26 105 -29 100 -33 -5 -5 -179 41
-187 49 -9 9 9 6 87 -16z m-595 -40 c45 -12 85 -25 90 -30 5 -5 -33 3 -84 17
-86 22 -117 34 -95 34 5 0 45 -10 89 -21z m815 -19 c45 -12 80 -24 77 -27 -6
-7 -169 38 -181 50 -7 7 -5 8 6 4 9 -3 53 -15 98 -27z m-600 -39 c41 -11 77
-24 80 -27 3 -4 -5 -4 -19 0 -14 3 -54 14 -90 22 -36 9 -69 21 -75 27 -7 6 -3
7 10 4 11 -4 53 -15 94 -26z m206 -56 c44 -13 71 -23 60 -23 -11 0 -56 10
-100 23 -44 13 -71 23 -60 23 11 0 56 -10 100 -23z m174 -46 c96 -26 105 -29
100 -33 -5 -5 -179 41 -187 49 -9 9 9 6 87 -16z m220 -59 c45 -12 80 -24 77
-27 -6 -7 -169 38 -181 50 -7 7 -5 8 6 4 9 -3 53 -15 98 -27z"/>
<path d="M1832 3476 l-51 -54 -88 24 c-48 13 -89 24 -90 24 -2 0 -3 -42 -3
-94 l0 -94 83 -21 c101 -27 111 -30 105 -36 -2 -2 -44 7 -93 20 -50 14 -91 25
-92 25 -2 0 -3 -42 -3 -94 l0 -94 83 -21 c101 -27 111 -30 105 -36 -2 -2 -44
7 -93 20 -50 14 -91 25 -92 25 -2 0 -3 -42 -3 -94 l0 -94 83 -21 c101 -27 111
-30 105 -36 -2 -2 -44 7 -93 20 -50 14 -91 25 -92 25 -2 0 -3 -42 -3 -94 l0
-94 83 -21 c101 -27 111 -30 105 -36 -2 -2 -44 7 -93 20 -50 14 -91 25 -92 25
-2 0 -3 -42 -3 -94 l0 -94 83 -21 c101 -27 111 -30 105 -36 -2 -2 -44 7 -93
20 -50 14 -91 25 -92 25 -2 0 -3 -42 -3 -94 l0 -94 83 -21 c101 -27 111 -30
105 -36 -2 -2 -44 7 -93 20 -50 14 -91 25 -92 25 -2 0 -3 -42 -3 -94 l0 -94
83 -21 c101 -27 111 -30 105 -36 -2 -2 -44 7 -93 20 -50 14 -91 25 -92 25 -2
0 -3 -42 -3 -94 l0 -94 83 -21 c101 -27 111 -30 105 -36 -2 -2 -44 7 -93 20
-50 14 -91 25 -92 25 -2 0 -3 -42 -3 -94 l0 -94 83 -21 c101 -27 111 -30 105
-36 -2 -2 -44 7 -93 20 -50 14 -91 25 -92 25 -2 0 -3 -42 -3 -94 l0 -94 83
-21 c101 -27 111 -30 105 -36 -2 -2 -44 7 -93 20 -50 14 -91 25 -92 25 -2 0
-3 -42 -3 -94 l0 -94 83 -21 c101 -27 111 -30 105 -36 -2 -2 -44 7 -93 20 -50
14 -91 25 -92 25 -2 0 -3 -42 -3 -94 l0 -94 83 -21 c101 -27 111 -30 105 -36
-2 -2 -44 7 -93 20 -50 14 -91 25 -92 25 -2 0 -3 -42 -3 -94 l0 -94 83 -21
c101 -27 111 -30 105 -36 -2 -2 -44 7 -93 20 -50 14 -91 25 -92 25 -2 0 -3
-42 -3 -93 l0 -93 300 -80 299 -80 51 51 50 51 0 335 0 335 423 -113 c232 -62
434 -117 448 -122 24 -8 32 -4 78 43 l51 52 0 1004 0 1004 -59 -58 -60 -59
-88 23 c-48 13 -90 25 -92 27 -3 2 20 29 50 61 l54 57 -61 -59 c-60 -56 -63
-58 -95 -48 -19 6 -61 18 -93 27 l-59 16 54 55 c29 30 48 54 43 54 -6 0 -34
-24 -61 -53 l-51 -53 -88 24 c-49 13 -91 26 -93 28 -3 3 20 30 50 62 l54 57
-62 -59 -61 -58 -89 23 c-48 12 -90 24 -92 26 -3 2 20 29 50 61 l54 57 -60
-57 -61 -58 -74 20 c-41 12 -83 23 -94 26 -16 5 -10 14 35 60 29 30 48 54 43
54 -6 0 -34 -24 -61 -53 l-50 -53 -89 24 c-49 13 -91 26 -93 28 -3 3 20 30 50
62 l54 57 -61 -58 -61 -58 -84 21 c-46 12 -87 24 -92 27 -5 3 15 30 44 59 29
30 48 54 43 54 -6 0 -34 -24 -62 -54z m152 -296 c5 0 7 -2 4 -6 -7 -7 -170 35
-182 47 -5 5 31 -2 80 -16 49 -14 93 -25 98 -25z m119 -32 c48 -13 87 -26 87
-29 0 -6 -153 32 -185 45 -27 12 18 4 98 -16z m197 -53 c56 -14 106 -34 90
-35 -13 0 -183 49 -188 56 -4 3 2 4 13 1 11 -3 49 -13 85 -22z m284 -75 c5 0
7 -3 3 -6 -7 -7 -187 38 -187 47 0 4 39 -4 87 -17 49 -13 92 -24 97 -24z
m-600 -40 c5 0 7 -2 4 -6 -7 -7 -170 35 -182 47 -5 5 31 -2 80 -16 49 -14 93
-25 98 -25z m709 9 c45 -11 86 -25 91 -30 5 -5 -33 3 -85 17 -86 24 -115 34
-95 34 4 0 44 -9 89 -21z m-590 -41 c48 -13 87 -26 87 -29 0 -6 -153 32 -185
45 -27 12 18 4 98 -16z m777 -8 c106 -29 112 -31 107 -36 -5 -5 -155 34 -177
47 -22 13 -12 11 70 -11z m-580 -45 c56 -14 106 -34 90 -35 -13 0 -183 49
-188 56 -4 3 2 4 13 1 11 -3 49 -13 85 -22z m885 -43 c-6 -6 -185 41 -185 49
0 3 43 -6 95 -19 52 -14 93 -27 90 -30z m-601 -32 c5 0 7 -3 3 -6 -7 -7 -187
38 -187 47 0 4 39 -4 87 -17 49 -13 92 -24 97 -24z m-600 -40 c5 0 7 -2 4 -6
-7 -7 -170 35 -182 47 -5 5 31 -2 80 -16 49 -14 93 -25 98 -25z m709 9 c45
-11 86 -25 91 -30 5 -5 -33 3 -85 17 -86 24 -115 34 -95 34 4 0 44 -9 89 -21z
m-590 -41 c48 -13 87 -26 87 -29 0 -6 -153 32 -185 45 -27 12 18 4 98 -16z
m777 -8 c106 -29 112 -31 107 -36 -5 -5 -155 34 -177 47 -22 13 -12 11 70 -11z
m305 -88 c-6 -6 -185 41 -185 49 0 3 43 -6 95 -19 52 -14 93 -27 90 -30z
m-490 -63 c44 -11 84 -25 89 -30 5 -5 -31 2 -80 16 -49 14 -92 25 -96 25 -5 0
-8 -42 -8 -94 l0 -94 90 -22 c50 -12 93 -26 95 -31 3 -4 -34 3 -82 16 -49 14
-91 25 -95 25 -5 0 -8 -42 -8 -94 l0 -94 90 -22 c50 -12 93 -26 95 -31 3 -4
-34 3 -82 16 -49 14 -91 25 -95 25 -5 0 -8 -42 -8 -94 l0 -94 90 -22 c50 -12
93 -26 95 -31 3 -4 -34 3 -82 16 -49 14 -91 25 -95 25 -5 0 -8 -40 -8 -89 0
-52 -4 -93 -10 -96 -9 -6 -177 32 -189 42 -3 2 20 29 50 61 l54 57 -60 -57
-61 -58 -74 20 c-41 12 -83 23 -94 26 -16 5 -11 14 33 58 l51 52 0 340 0 341
158 -43 c86 -24 193 -53 237 -65z m-711 -9 c5 0 7 -2 4 -6 -7 -7 -170 35 -182
47 -5 5 31 -2 80 -16 49 -14 93 -25 98 -25z m119 -32 c48 -13 87 -26 87 -29 0
-6 -153 32 -185 45 -27 12 18 4 98 -16z m777 -8 c106 -29 112 -31 107 -36 -5
-5 -155 34 -177 47 -22 13 -12 11 70 -11z m305 -88 c-6 -6 -185 41 -185 49 0
3 43 -6 95 -19 52 -14 93 -27 90 -30z m-1201 -72 c5 0 7 -2 4 -6 -7 -7 -170
35 -182 47 -5 5 31 -2 80 -16 49 -14 93 -25 98 -25z m119 -32 c48 -13 87 -26
87 -29 0 -6 -153 32 -185 45 -27 12 18 4 98 -16z m777 -8 c106 -29 112 -31
107 -36 -5 -5 -155 34 -177 47 -22 13 -12 11 70 -11z m305 -88 c-6 -6 -185 41
-185 49 0 3 43 -6 95 -19 52 -14 93 -27 90 -30z m-1201 -72 c5 0 7 -2 4 -6 -7
-7 -170 35 -182 47 -5 5 31 -2 80 -16 49 -14 93 -25 98 -25z m119 -32 c48 -13
87 -26 87 -29 0 -6 -153 32 -185 45 -27 12 18 4 98 -16z m777 -8 c106 -29 112
-31 107 -36 -5 -5 -155 34 -177 47 -22 13 -12 11 70 -11z m305 -88 c-6 -6
-185 41 -185 49 0 3 43 -6 95 -19 52 -14 93 -27 90 -30z m-1201 -72 c5 0 7 -2
4 -6 -7 -7 -170 35 -182 47 -5 5 31 -2 80 -16 49 -14 93 -25 98 -25z m119 -32
c48 -13 87 -26 87 -29 0 -6 -153 32 -185 45 -27 12 18 4 98 -16z m777 -8 c106
-29 112 -31 107 -36 -5 -5 -155 34 -177 47 -22 13 -12 11 70 -11z m305 -88
c-6 -6 -185 41 -185 49 0 3 43 -6 95 -19 52 -14 93 -27 90 -30z m-1201 -72 c5
0 7 -2 4 -6 -7 -7 -170 35 -182 47 -5 5 31 -2 80 -16 49 -14 93 -25 98 -25z
m709 9 c45 -11 86 -25 91 -30 5 -5 -33 3 -85 17 -86 24 -115 34 -95 34 4 0 44
-9 89 -21z m-590 -41 c48 -13 87 -26 87 -29 0 -6 -153 32 -185 45 -27 12 18 4
98 -16z m777 -8 c106 -29 112 -31 107 -36 -5 -5 -155 34 -177 47 -22 13 -12
11 70 -11z m-580 -45 c56 -14 106 -34 90 -35 -13 0 -183 49 -188 56 -4 3 2 4
13 1 11 -3 49 -13 85 -22z m885 -43 c-6 -6 -185 41 -185 49 0 3 43 -6 95 -19
52 -14 93 -27 90 -30z m-601 -32 c5 0 7 -3 3 -6 -7 -7 -187 38 -187 47 0 4 39
-4 87 -17 49 -13 92 -24 97 -24z m-600 -40 c5 0 7 -2 4 -6 -7 -7 -170 35 -182
47 -5 5 31 -2 80 -16 49 -14 93 -25 98 -25z m709 9 c45 -11 86 -25 91 -30 5
-5 -33 3 -85 17 -86 24 -115 34 -95 34 4 0 44 -9 89 -21z m-590 -41 c48 -13
87 -26 87 -29 0 -6 -153 32 -185 45 -27 12 18 4 98 -16z m777 -8 c106 -29 112
-31 107 -36 -5 -5 -155 34 -177 47 -22 13 -12 11 70 -11z m-580 -45 c56 -14
106 -34 90 -35 -13 0 -183 49 -188 56 -4 3 2 4 13 1 11 -3 49 -13 85 -22z
m885 -43 c-6 -6 -185 41 -185 49 0 3 43 -6 95 -19 52 -14 93 -27 90 -30z
m-601 -32 c5 0 7 -3 3 -6 -7 -7 -187 38 -187 47 0 4 39 -4 87 -17 49 -13 92
-24 97 -24z m-600 -40 c5 0 7 -2 4 -6 -7 -7 -170 35 -182 47 -5 5 31 -2 80
-16 49 -14 93 -25 98 -25z m709 9 c45 -11 86 -25 91 -30 5 -5 -33 3 -85 17
-86 24 -115 34 -95 34 4 0 44 -9 89 -21z m-590 -41 c48 -13 87 -26 87 -29 0
-6 -153 32 -185 45 -27 12 18 4 98 -16z m777 -8 c106 -29 112 -31 107 -36 -5
-5 -155 34 -177 47 -22 13 -12 11 70 -11z m305 -88 c-6 -6 -185 41 -185 49 0
3 43 -6 95 -19 52 -14 93 -27 90 -30z m-1201 -72 c5 0 7 -2 4 -6 -7 -7 -170
35 -182 47 -5 5 31 -2 80 -16 49 -14 93 -25 98 -25z m119 -32 c48 -13 87 -26
87 -29 0 -6 -153 32 -185 45 -27 12 18 4 98 -16z m-119 -168 c5 0 7 -2 4 -6
-7 -7 -170 35 -182 47 -5 5 31 -2 80 -16 49 -14 93 -25 98 -25z m119 -32 c48
-13 87 -26 87 -29 0 -6 -153 32 -185 45 -27 12 18 4 98 -16z m-119 -168 c5 0
7 -2 4 -6 -7 -7 -170 35 -182 47 -5 5 31 -2 80 -16 49 -14 93 -25 98 -25z
m119 -32 c48 -13 87 -26 87 -29 0 -6 -153 32 -185 45 -27 12 18 4 98 -16z"/>
</g>
</svg>
